# xmcd
#
# Track frame offsets:
# 150
# 23152
# 41515
# 60152
# 73161
# 88997
# 105598
# 122990
# 142003
# 158859
# 176261
# 192699
# 208147
# 221807
# 238145
# 254866
# 270928
# 284362
# 298648
# 316230
# 330056
#
# Disc length: 4718 seconds
#
#
# Revision: 1
# Processed by: cddbd v1.5.2PL0 Copyright (c) Steve Scherf et al.
# Submitted via: FreeRIP 2.951 
#
DISCID=47126c15
DTITLE=Ana Carolina - Minha História
DYEAR=2007
DGENRE=Pop
TTITLE0=Quem De Nós Dois
TTITLE1=Nua
TTITLE2=A Canção Tocou Na Hora Errada
TTITLE3=Catedral
TTITLE4=Confesso
TTITLE5=Nada Pra Mim
TTITLE6=O Avesso Dos Ponteiros
TTITLE7=Encostar Na Sua
TTITLE8=Só Se Fala Em Mim
TTITLE9=Pra Rua Me Levar
TTITLE10=Que Se Dane Os Nós
TTITLE11=Carvão
TTITLE12=Mais Que Isso
TTITLE13=Rosas
TTITLE14=Que Sera
TTITLE15=Garganta
TTITLE16=Me Sento Na Rua
TTITLE17=É Hora Da Virada
TTITLE18=O Beat Da Be Afa
TTITLE19=Noite Do Prazer
TTITLE20=É Isso Ai
EXTD=
EXTT0=
EXTT1=
EXTT2=
EXTT3=
EXTT4=
EXTT5=
EXTT6=
EXTT7=
EXTT8=
EXTT9=
EXTT10=
EXTT11=
EXTT12=
EXTT13=
EXTT14=
EXTT15=
EXTT16=
EXTT17=
EXTT18=
EXTT19=
EXTT20=
PLAYORDER=
